<svg xmlns="http://www.w3.org/2000/svg" width="1024" height="1024" viewBox="0 0 1024 1024"><path fill="#f7f7f7" d="M519.292 216.51c39.01 1.282 81.608 10.186 116.774 27.548 67.198 29.25 124.564 90.348 151.001 158.445 1.71 4.406 4.92 14.554 6.58 18.08 7.885 26.382 12.772 50.299 14.346 77.99a290.3 290.3 0 0 1-33.684 151.061c-37.296 68.933-100.61 123.584-176.272 145.983a296.8 296.8 0 0 1-226.929-22.15c-43.049-23.426-76.389-55.015-104.098-95.417-7.203-10.502-17.537-27.711-22.368-39.593-1.217-1.556-6.242-13.269-7.188-15.554a286.6 286.6 0 0 1-20.886-110.307 295.2 295.2 0 0 1 88.697-211.548 295.97 295.97 0 0 1 161.393-81.235c19.362-2.949 33.404-3.347 52.634-3.303"/><defs><linearGradient id="a" x1="737.857" x2="417.599" y1="701.269" y2="433.649" gradientUnits="userSpaceOnUse"><stop offset="0" stop-color="#07324e"/><stop offset="1" stop-color="#26658a"/></linearGradient></defs><path fill="url(#a)" d="M636.066 244.058c67.198 29.25 124.564 90.348 151.001 158.445 1.71 4.406 4.92 14.554 6.58 18.08 7.885 26.382 12.772 50.299 14.346 77.99a290.3 290.3 0 0 1-33.684 151.061c-37.296 68.933-100.61 123.584-176.272 145.983a296.8 296.8 0 0 1-226.929-22.15c-43.049-23.426-76.389-55.015-104.098-95.417-7.203-10.502-17.537-27.711-22.368-39.593 2.584.704 3.678 2.268 5.953 2.32 2.855-2.944 5.941-5.68 9.393-7.91 2.183-1.411 4.143-.001 6.795.24.516-1.669.585-2.228 1.661-3.645 1.312.353 1.194.86 2.164 2.441 1.166-.495 1.068-.965 1.846-2.396 51.412 105.29 165.402 164.825 281.189 146.859 115.786-17.965 206.376-109.243 223.466-225.161s-43.305-229.456-148.98-280.072c1.746-1.997 10.223-12.785 10.795-14.497-1.164-.075-1.214-.091-2.332-.434l-.123-.739c1.058-2.213 2.458-3.25 4.252-4.941-2.141-1.882-4.103-3.38-5.713-5.724z"/><defs><linearGradient id="b" x1="467.608" x2="290.65" y1="464.369" y2="317.512" gradientUnits="userSpaceOnUse"><stop offset="0" stop-color="#225f82"/><stop offset="1" stop-color="#3279a2"/></linearGradient></defs><path fill="url(#b)" d="M519.292 216.51c39.01 1.282 81.608 10.186 116.774 27.548l-1.058.74c1.61 2.344 3.572 3.842 5.713 5.724-1.794 1.691-3.194 2.728-4.252 4.941l.123.739c1.118.343 1.168.359 2.332.434-.572 1.712-9.049 12.5-10.795 14.497-102.601-49.142-225.064-27.963-305.202 52.782s-100.39 203.366-50.473 305.592c-.778 1.431-.68 1.901-1.846 2.396-.97-1.581-.852-2.088-2.164-2.441-1.076 1.417-1.145 1.976-1.661 3.645-2.652-.241-4.612-1.651-6.795-.24-3.452 2.23-6.538 4.966-9.393 7.91-2.275-.052-3.369-1.616-5.953-2.32-1.217-1.556-6.242-13.269-7.188-15.554a286.6 286.6 0 0 1-20.886-110.307 295.2 295.2 0 0 1 88.697-211.548 295.97 295.97 0 0 1 161.393-81.235c19.362-2.949 33.404-3.347 52.634-3.303"/><defs><linearGradient id="c" x1="756.056" x2="268.909" y1="455.901" y2="568.107" gradientUnits="userSpaceOnUse"><stop offset="0" stop-color="#3c7ca7"/><stop offset="1" stop-color="#4893c0"/></linearGradient></defs><path fill="url(#c)" d="M497.115 262.377c138.039-8.525 256.871 96.424 265.473 234.458 8.601 138.034-96.283 256.924-234.312 265.601-138.137 8.684-257.139-96.3-265.747-234.441s96.441-257.086 234.586-265.618"/><path fill="#f7f7f7" d="M498.765 264.61c136.886-7.707 254.108 97 261.841 233.884 7.732 136.884-96.951 254.126-233.834 261.886-136.92 7.762-254.202-96.957-261.937-233.879s97.006-254.183 233.93-261.891"/><path fill="#1c4960" d="m523.21 441.732 140.275-.256.015 105.364-6.75.026-139.964.083c.345-32.211-.341-64.542-.046-96.762.047-5.109 1.461-7.295 6.47-8.455"/><path fill="#f7f7f7" d="M570.649 481.903c2.753-2.992 4.919-5.944 8.73-7.312 4.263.724 2.661 5.534 7.769 7.07 3.967 1.194 8.916-.354 11.134 2.952.418 3.003-.853 5.315-2.033 8.095 2.284 3.336 6.068 6.113 7.694 8.996-.506 2.591-1.468 2.874-3.713 4.119l-.391.993-.116-.582.116.588c7.098 4.54 5.685-3.502 12.339-2.609 1.036 1.094 2.956 4.292 4.042 4.41 3.101.336 5.817.389 5.067 4.917-1.136 1.71-1.96 2.027-3.747 3.166 1.704 1.95 1.869-.063 3.073 2.277l-.408.839-2.449.813c2.161.498 1.911-.099 2.794 1.08-.244 1.253-.866 1.557-1.851 2.44l1.029.605c-.607 1.48-.102 1.001-1.454 1.595-2.16-.493-3.616-1.201-5.322-.308l-1.306 2.61c-1.377.348-10.724-3.313-12.956-4.06-.97-1.128-.67-.482-.823-2.051 2.325-4.782 1.754-5.069-.416-9.827l-1.606.928c-1.542 9.748-4.168 8.658-12.895 7.612-9.034 10.99-7.755 8.06-17.976 1.991-3.062.896-5.576 1.739-8.688.582-3.363-3.603.972-8.247-2.714-11.698-3.79-3.548-7.056-2.258-7.644-8.454-.752-7.929 7.748-5.818 9.377-11.489-1.115-8.974-2.512-7.888 5.17-14.7 4.068 1.305 6.421 2.232 10.174 4.412"/><path fill="#1c4960" d="M595.845 513.647c.605-2.687 1.207-5.653 4.646-5.336.482 1.993-1.439 3.465-3.04 4.408z"/><path fill="#1c4960" d="M579.099 477.811c2.594 1.114 2.215 4.449 7.619 7.657 2.917-.078 6.147-.853 8.053 1.454.305 2.261-.682 4.49-1.401 6.745 2.9 4.691 3.795 5.697 8.226 8.962-7.746 3.623-8.045 5.297-9.317 13.056-.718 4.377-7.304 1.865-10.245 2.818-3.426 1.111-4.36 5.225-7.634 7.07-1.694-.203-1.463-.536-3.014-2.127-1.925-1.764-2.699-2.141-4.996-3.493-2.317.666-4.246 1.434-6.624 1.293-3.6-2.079.007-4.519-2.036-8.801-1.993-4.178-6.45-5.236-8.061-8.966.246-4.138 4.674-3.859 7.493-7.347 3.052-3.776.839-6.615.516-10.859 3.038-5.092 6.894-2.212 11.789-1.817 4.281.345 6.545-3.028 9.632-5.645"/><path fill="#f7f7f7" d="M574.424 493.765a9.115 9.115 0 0 1 10.147 7.895 9.116 9.116 0 1 1-18.085 2.307 9.115 9.115 0 0 1 7.938-10.202"/><path fill="#1c4960" d="M610.737 509.008c5.399 1.248 6.793 9.641 2.421 12.973-2.862 2.181-4.627 1.605-7.963 1.475-2.825-5.041-2.678-4.265-1.196-9.92l-.337-.567-2.022 1.346-.331-.579c1.116-2.217 5.953-3.087 9.428-4.728"/><path fill="#f7f7f7" d="M606.153 513.395c3.026.052 5.351-.323 7.188 2.345.156 1.941-.134 2.176-1.115 3.831-1.745.904-1.762 1.067-3.777.99-3.043-1.64-2.777-4.073-2.296-7.166"/><path fill="#f7f7f7" d="M609.448 461.225c8.379-.938 5.08-3.956 8.253-5.563 6.973-3.532 8.038 4.263 14.557 6.1l1.833.529c1.368.399.722.052 1.718 1.313.648 3.008.061 6.289-.202 9.398-.095 1.125-1.666 1.927-2.632 2.499-1.846.242-1.712.237-3.382-.607l-.589 1.285c2.036 1.258 1.754.693 2.742 2.548-.219 1.651-.525 2.182-1.992 3.198 1.969 1.992 2.718 3.273 1.91 6.138-2.716 3.002-5.258.55-8.022-1.198-2.781 2.35-9.214 5.841-9.984-1.201-.155-1.422.059-1.523-.572-2.913-.591-.229-2.849-1.144-3.063-1.525-2.026-3.608-2.199-10.554-4.917-13.685-1.49-.725-1.748-1.042-3.382-.872l-.736 1.397c-1.505-.174-2.413-1.366-3.819-2.525l-.557.238c.817 1.361.771.743.789 2.071-2.455.646-4.156-1.42-5.884-2.941 1.382-1.037 1.903-1.461 3.487-2.257 1.447.639 1.353.692 2.906.585l-.711-1.008.188-.584c1.405-.012 6.907 3.272 8.534 4.166z"/><path fill="#1c4960" d="m612.264 478.824-.776-1.334c.152-1.471-.033-2.834-.064-4.32l-.007-.572c-6.783-8.588 1.452-8.081 6.296-9.804.017-.006.717-3.697 2.301-5.094 1.536-.265 1.428-.294 2.833.371 3.403 5.382 4.002 5.109 10.094 5.97.142 2.186.058 4.718.041 6.935-1.133 1.635-2.001 2.472-3.389 3.918l-.589 1.285c-3.583-2.219-11.573-2.82-15.401-.954l.065.522 1.248.772-.179.441-2.231.087-.229.509.448.832z"/><path fill="#f7f7f7" d="m612.264 478.824.461-.436-.448-.832.229-.509 2.231-.087.179-.441-1.248-.772-.065-.522c3.828-1.866 11.818-1.265 15.401.954 2.036 1.258 1.754.693 2.742 2.548-.219 1.651-.525 2.182-1.992 3.198l-.843.856c-2.01.092-1.741.376-3.287-.42l.053-.811a243 243 0 0 0 3.644-2.905l-.779-.586c-4.426 2.178-10.231-6.458-11.978 2.869-1.837.907-1.051.971-2.516.528-.594-1.131-.927-1.69-1.784-2.632"/><path fill="#1c4960" d="M616.564 480.928c1.747-9.327 7.552-.691 11.978-2.869l.779.586q-1.808 1.47-3.644 2.905l-.053.811c1.546.796 1.277.512 3.287.42.472 1.248.646 1.326.479 2.61l-1.711-1.202c-1.904-.112-5.427-.28-6.901.907-.022 1.777.244 1.337-.485 2.719-.249-1.888.179-1.382-.8-2.47-.95.313-1.491.451-2.47.664l-.345-.544c1.199-2.407 1.847-2.71-.114-4.537"/><path fill="#0c75ae" d="M354.51 471.547c3.133-.157 6.649-.122 9.825-.061 22.466.431 45.207-.707 67.589.444 2.731.141 5.324 4.201 6.518 6.269.241 11.911 1.105 103.213-.693 108.355-1.237 3.537-3.791 5.536-7.037 7.158-3.96.649-26.664.305-31.758.301l-26.207-.019c-9.88.017-17.954 2.295-24.852-5.584-1.091-5.117-.981-108.432.176-111.246 1.25-3.039 3.559-4.347 6.439-5.617"/><path fill="#f7f7f7" d="M419.573 490.755c1.428-.013 1.553-.155 2.782.485.937 1.651.497 3.886.364 5.876l-56.844.232c-1.347.078-1.798.249-3-.325-1.068-1.63-.645-4.066-.559-6.132z"/><path fill="#f7f7f7" d="m388.678 544.608 34.73.063-.029 6.227-34.727.113z"/><path fill="#f7f7f7" d="M388.66 531.964c5.724-.019 30.07-.473 34.383.237.778 1.745.537 3.796.51 5.754l-34.862.027z"/><path fill="#f7f7f7" d="M388.903 518.957c7.02.003 28.284-.417 34.233.31.778 1.703.516 3.818.477 5.748-5.321-.021-30.647.518-34.217-.376-.848-1.867-.562-3.582-.493-5.682"/><path fill="#f7f7f7" d="m362.65 557.985 30.157-.135c4.026-.017 12.608-.298 16.235.286.748 1.466.499 2.07.501 3.862l-31.264.04c-3.886.007-11.729.268-15.276-.303-.736-1.122-.442-2.332-.353-3.75"/><path fill="#f7f7f7" d="m374.306 516.844 6.69.071c.078 8.672-.118 17.619-.233 26.299l-6.394.133z"/><path fill="#f7f7f7" d="m361.511 516.979 6.529-.049-.039 25.909-6.287.045c-.219-8.466-.134-17.398-.203-25.905"/><path fill="#f7f7f7" d="M388.955 570.178c3.791-.077 7.718-.04 11.522-.057q.048 5.672-.256 11.336l-11.315.081c-.104-3.873-.037-7.485.049-11.36"/><path fill="#1c4960" d="M452.252 341.024c27.527 10.463 54.861 22.927 82.346 33.616 6.288 2.445 20.891 8.943 26.315 10.216a2323 2323 0 0 1-47.26 24.159c.019 5.516-.047 11.334.092 16.821-6.073-6.201-13.431-8.355-21.725-10.099-29.701-6.243-70.263-6.324-97.402 7.613-.034-5.663-.17-9.197-.697-14.883-5.741-2.879-11.215-5.651-17.102-8.229-.533 2.183-1.032 4.384-1.691 6.53-2.823 1.466-2.837.756-5.374-.794-.572-3.663-.761-4.932-.677-8.624-8.137-4.28-16.03-7.687-24.135-12.191l69.226-28.29c11.74-4.829 26.753-10.542 38.084-15.845"/><path fill="#f7f7f7" d="M456.835 398.255c11.19-1.753 34.323 2.304 44.66 7.216 5.165 2.454 8.433 4.326 10.492 9.739-.709-.419-1.562-1.147-2.26-1.715-10.403-8.447-26.465-12.422-39.514-14.044-3.704-.46-10.417.135-13.378-1.196"/><path fill="#f7f7f7" d="M371.054 398.122c1.333.238 1.247.198 2.35.982.802 1.827.173 4.004-.144 6.062-.277.097-.588-.007-.88-.032-1.003-2.157-1.064-4.602-1.326-7.012"/><path fill="#1c4960" d="M476.264 553.087c20.82.548 42.293-.079 63.198-.124l78.458.17q41.562-.346 83.121.368c.362 7.547.438 11.054-4.553 16.93-7.561 5.964-21.451 4.144-31.015 4.127l-40.621-.015-123.493.343c-18.073-.102-25.265-1.469-25.095-21.799"/><path fill="#f7f7f7" d="M583.009 558.037c3.039-.114 5.97-.048 7.747 2.92a4.39 4.39 0 0 1 .428 3.562c-.637 2.065-2.095 3.183-3.821 4.257-8.429.642-11.651-6.03-4.354-10.739"/><path fill="#1c4960" d="m523.414 422.11 139.333-.223c21.53-.104 19.764 8.127 19.731 26.205l.023 22.13.036 76.682-12.088.022c-.186-36.107.696-76.805-.649-112.472-5.65-.312-13.603-.056-19.413-.044l-34.347.004c-30.739-.015-61.855-.415-92.55-.101z"/><path fill="#1c4960" d="M440.562 415.706c16.461-1.887 54.484.623 66.553 9.229 24.049 17.149-35.595 21.946-40.992 22.407-21.01.941-50.193.292-68.751-10.679-2.649-1.566-5.225-6.332-2.324-8.597 11.907-9.296 30.993-11.161 45.514-12.36"/><path fill="#1c4960" d="M510.211 443.509c.022.194-.497 4.694-.536 5.897a560 560 0 0 0-.199 18.148l-.009 79.391-13.283.054c-.532-3.637-.116-21.964-.128-26.492q.21-35.053-.05-70.106c4.974-2.177 9.606-3.984 14.205-6.892"/><path fill="#1c4960" d="M420.915 615.894c2.291.201 3.366.306 4.893 2.237 1.03 3.929 1.004 40.872-.389 42.99-.585.89-1.762 1.448-2.785 1.581-1.235.161-2.559-.159-3.53-.956-2.833-2.326-1.543-23.472-1.493-28.063-2.402 3.949-7.759 15.558-12.387 15.662-4.05-1.454-9.517-11.404-12.117-15.478.341 3.296.279 7.04.304 10.392-.054 3.394.703 13.164-.474 15.594-3.312 6.839-8.238 1.333-8.181-4.303.047-4.609-.243-10.584-.047-14.856.194-4.248-1.257-20.516.687-22.939 6.576-4.477 9.502 3.535 12.356 8.157 2.658 4.305 5.028 8.657 7.841 12.892 3.159-5.504 10.762-20.226 15.322-22.91"/><path fill="#1c4960" d="M475.753 616.062c12.214-.274 32.468-1.163 27.609 20.489-.884 3.937-4.603 6.206-8.205 7.724 2.311 3.488 16.594 18.619 4.063 18.427-1.848-.827-1.916-1.142-3.14-2.872-2.427-3.639-8.789-15.378-13.059-15.167-3.741 3.681 1.35 14.476-4.471 18.436-7.371.451-5.692-12.817-5.476-18.052.274-6.626-1.482-24.854 2.679-28.985"/><path fill="#f7f7f7" d="M481.465 623.455c8.115-.063 19.778 2.129 12.456 12.781-4.171 2.549-7.59 2.115-12.382 2.074z"/><path fill="#1c4960" d="M618.53 638.651c2.336-3.807 10.881-19.667 12.948-21.42a4.88 4.88 0 0 1 4.218-1.018c1.451.325 1.87 1.018 2.604 2.156 1.431 11.503.256 25.919.602 37.69.085 2.919-1.223 6.386-4.494 6.829-5.133-1.898-3.796-6.987-3.802-11.49-.003-2.966.168-6.008.232-8.985l.008-10.021c-2.508 4.302-8.492 16.88-13.153 17.36-3.589-1.413-10.27-14.255-12.609-18.191.662 8.214 1.666 21.068-.153 29.138-.693 3.077-7.125 1.607-7.139-.021-.094-10.916-1.896-31.969-.07-42.216.93-1.614 1.581-1.712 3.28-2.488 6.398.539 13.609 16.772 17.528 22.677"/><path fill="#1c4960" d="M447.617 616.516c1.783-.1 4.76-.249 5.654 1.263 3.178 5.378 15.666 38.288 15.3 42.353-.659 1.327-1.16 1.862-2.581 2.376-5.496 1.989-7.394-7.517-8.593-11.21l-5.664.093-9.461.035c-1.473 3.929-2.967 10.761-7.512 11.385-6.423-1.419-3.689-8.242-1.607-12.233 3.835-7.352 8.88-28.834 14.464-34.062"/><path fill="#f7f7f7" d="M449.653 629.336c1.49 1.432 4.72 12.217 5.575 14.876l-5.708.106-5.447-.083z"/><path fill="#1c4960" d="M363.464 615.667c7.636.085 21.173 5.266 9.314 12.606-3.864-3.881-9.576-6.146-14.34-2.306-5.474 11.296 20.679 8.341 20.486 20.83-.179 11.487-5.096 15.757-16.149 16.382-4.448-.371-17.042-4.202-13.2-11.878 1.233-2.465 6.128-1.01 7.573.865 1.563 2.027 4.395 3.429 7.006 3.121 2.734.805 7.838-3.658 6.665-6.27-3.77-8.393-20.111-6.068-21.498-17.859-1.104-9.39 5.447-14.164 14.143-15.491"/><path fill="#1c4960" d="M655.2 615.567c5.296-.703 22.516 1.172 16.679 9.803-1.932 1.068-4.02.73-6.724-.762-4.451-2.455-11.597-3.233-11.523 3.962.022 2.139 6.308 5.185 8.664 6.215 10.706 4.676 19.122 11.691 9.794 23.179-3.089 3.803-7.198 4.403-11.871 4.802-5.77-.024-19.038-4.319-14.513-10.712s14.224 11.471 22.097-1.117c.82-8.142-19.31-9.576-21.767-18.728-2.395-8.924.587-13.634 9.164-16.642"/><path fill="#1c4960" d="M532.043 615.777c3.808-.324 8.083-.661 9.673 3.689-.851 5.062-10.708 4.309-14.229 4.236-.067 9.357.093 18.706.114 28.061.008 3.646.892 8.782-2.842 10.661-3.522.329-4.892-.584-5.505-4.048-.401-11.06.199-23.45-.047-34.888-1.695.031-10.718.434-11.549-.643-7.736-10.033 19.111-6.895 24.385-7.068"/><path fill="#1c4960" d="M569.402 615.921c1.575.13 3.237.244 4.409 1.434 1.615 1.638.786 32.793.79 37.112 5.199.089 14.61-1.647 18.354 1.816.82 1.783.701 1.767.378 3.629-1.015 1.667-1.381 1.697-3.131 2.5-3.058-.181-22.347.681-22.854-2.039-2.439-13.088-1.044-28.402-.852-41.812.015-1.089 2.064-2.137 2.906-2.64"/><path fill="#1c4960" d="M375.471 420.147c1.569 2.187 5.287 8.869 4.096 11.391-1.292 1.046-2.116.919-3.691 1.03-.406 1.183-.604 1.686-1.15 2.808l-.893-.047c-.697-.82-1.049-1.209-1.834-1.942-.735.488-1.377 1.038-2.024 1.637l-.606-.257-.37-2.241c-1.227-.963-3.277-1.006-5.003-1.279 1.664-3.913 3.366-8.618 6.381-11.601 2.094.544 2.889.469 5.094.501"/><path fill="#1c4960" d="M549.604 638.773c4.248-.288 9.008-1.014 10.608 4.088-1.063 3.977-5.18 3.358-8.358 3.25-3.649.09-9.722.656-10.93-4.009 1.03-3.861 5.537-3.293 8.68-3.329"/><path fill="#0c75ae" d="M369.754 405.974c2.537 1.55 2.551 2.26 5.374.794-3.562 5.406 5.451 3.101-.818 12.553l1.161.826c-2.205-.032-3 .043-5.094-.501-.882-1.859-2.502-7.431-.898-9.119.871-.916.923.484 2.022-1.549-.488-1.54-.773-1.734-1.747-3.004"/></svg>